<mxfile host="app.diagrams.net" modified="2023-09-14T01:48:14.227Z" agent="Mozilla/5.0 (Macintosh; Intel Mac OS X 10_15_7) AppleWebKit/537.36 (KHTML, like Gecko) Chrome/116.0.0.0 Safari/537.36" version="21.7.5" etag="HoLYwKm7p7k0Z1FhVO3T" type="github">
  <diagram name="Page-1" id="x0pOioALnpkioj_u5Uop">
    <mxGraphModel>
      <root>
        <mxCell id="0" />
        <mxCell id="1" parent="0" />
      </root>
    </mxGraphModel>
  </diagram>
</mxfile>
